<?xml version="1.0" standalone="no"?>
<!DOCTYPE svg PUBLIC "-//W3C//DTD SVG 20010904//EN"
 "http://www.w3.org/TR/2001/REC-SVG-20010904/DTD/svg10.dtd">
<svg version="1.0" xmlns="http://www.w3.org/2000/svg"
 width="488.000000pt" height="488.000000pt" viewBox="0 0 488.000000 488.000000"
 preserveAspectRatio="xMidYMid meet">
<metadata>
Created by potrace 1.14, written by Peter Selinger 2001-2017
</metadata>
<g transform="translate(0.000000,488.000000) scale(0.100000,-0.100000)"
fill="#000000" stroke="none">
<path d="M2275 4453 c-66 -7 -217 -29 -245 -36 -13 -3 -87 -19 -100 -22 -74
-14 -321 -111 -427 -166 -88 -47 -278 -171 -338 -221 -147 -123 -330 -329
-420 -473 -20 -33 -46 -72 -56 -87 -10 -15 -19 -34 -19 -43 0 -8 -4 -15 -8
-15 -8 0 -19 -23 -72 -143 -50 -114 -111 -303 -125 -387 -2 -14 -9 -54 -15
-90 -7 -36 -14 -76 -16 -90 -9 -54 -12 -368 -4 -430 5 -36 11 -82 14 -102 27
-204 99 -426 203 -633 41 -81 167 -280 196 -310 7 -7 23 -27 37 -45 49 -67
246 -258 322 -313 104 -76 149 -107 157 -107 5 0 11 -4 13 -9 4 -12 278 -155
278 -146 0 4 6 3 13 -2 22 -18 184 -74 287 -99 8 -2 33 -8 55 -14 22 -5 60
-12 85 -15 25 -4 52 -8 60 -10 89 -25 441 -25 578 -1 17 3 45 8 62 11 86 15
245 57 310 82 8 4 17 7 20 8 30 7 89 31 106 42 11 7 23 11 26 8 3 -3 11 1 18
10 7 8 19 15 27 15 7 0 25 8 40 17 14 10 33 18 41 19 8 2 18 6 21 11 3 4 26
19 51 32 25 13 52 30 61 37 8 8 19 14 23 14 9 0 80 52 84 63 2 4 8 5 13 1 5
-3 9 -1 9 4 0 6 23 27 51 47 65 46 257 234 265 257 3 10 10 16 15 13 5 -4 9
-2 9 3 0 4 9 18 20 29 17 18 142 201 177 258 72 118 175 373 214 530 65 260
74 594 24 870 -19 104 -62 246 -115 380 -20 52 -95 203 -112 228 -11 15 -17
27 -14 27 3 0 -24 44 -61 98 -120 178 -261 332 -408 449 -112 89 -252 183
-273 183 -6 0 -12 4 -14 8 -9 24 -349 167 -441 186 -12 3 -31 7 -42 10 -93 24
-150 36 -192 41 -27 3 -60 8 -74 11 -27 6 -348 12 -394 7z"/>
</g>
</svg>
